#!OML:ASF G:\JayActor3\Patient Classification 1\Patient 1\Session 6\male.ASF
:FULLY-SPECIFIED
:DEGREES
3838
root -3.89927 16.2664 -11.6563 793.299 -86.1575 -797.918
lowerback -4.34694 -0.776219 2.01799
upperback 1.64349 -1.07819 -2.44492
thorax 4.05452 -0.456943 -3.75084
lowerneck 4.24479 -11.1793 -10.102
upperneck 25.5347 -16.3742 -1.0451
head 8.05273 -9.24948 0.22488
rclavicle -7.55382e-015 -3.65764e-014
rhumerus -82.2942 37.0125 -122.883
rradius 75.7095
rwrist 20.953
rhand -60.0857 47.79
rfingers 7.12502
rthumb -32.2334 20.6311
lclavicle -7.55382e-015 -3.65764e-014
lhumerus -79.1711 -42.8786 105.335
lradius 89.035
lwrist 2.22762
lhand -40.2814 -41.4883
lfingers 7.12502
lthumb -13.239 -11.9287
rfemur -3.8421 -4.69744 30.7808
rtibia 32.8834
rfoot -28.9989 -16.3082
rtoes 8.72378
lfemur 1.88297 3.09495 -5.74172
ltibia 24.1882
lfoot -16.5172 6.57198
ltoes -4.41139
3839
root -3.89623 16.2708 -11.6495 792.869 -86.3482 -797.569
lowerback -4.31642 -0.748427 1.92212
upperback 1.6829 -1.03268 -2.5489
thorax 4.08169 -0.435263 -3.80175
lowerneck 4.19057 -11.1211 -10.1042
upperneck 25.7355 -16.2659 -1.21995
head 8.11116 -9.21846 0.166177
rclavicle -6.85807e-015 -2.70347e-014
rhumerus -82.2079 36.9941 -122.997
rradius 75.5574
rwrist 20.883
rhand -60.0865 47.762
rfingers 7.12502
rthumb -32.2342 20.6033
lclavicle -6.85807e-015 -2.70347e-014
lhumerus -79.1543 -42.951 105.165
lradius 89.1955
lwrist 2.20113
lhand -40.2754 -41.4745
lfingers 7.12502
lthumb -13.2333 -11.9145
rfemur -3.79526 -4.36318 30.6239
rtibia 32.9595
rfoot -29.1713 -16.5383
rtoes 8.80766
lfemur 1.91642 3.08792 -5.87882
ltibia 24.2748
lfoot -16.2659 6.03557
ltoes -4.32467
3840
root -3.89281 16.2751 -11.6423 792.309 -86.5276 -797.087
lowerback -4.27801 -0.724337 1.83455
upperback 1.71293 -0.992804 -2.64907
thorax 4.09417 -0.416611 -3.85351
lowerneck 4.14205 -11.0613 -10.0991
upperneck 25.9364 -16.1534 -1.40784
head 8.16705 -9.18646 0.102959
rclavicle -2.18663e-015 -1.43125e-014
rhumerus -82.1343 36.9773 -123.121
rradius 75.4042
rwrist 20.8249
rhand -60.0944 47.7181
rfingers 7.12502
rthumb -32.2417 20.561
lclavicle -2.18663e-015 -1.43125e-014
lhumerus -79.1517 -43.0168 105.006
lradius 89.3512
lwrist 2.16714
lhand -40.2732 -41.4629
lfingers 7.12502
lthumb -13.2312 -11.9028
rfemur -3.75422 -4.037 30.4759
rtibia 33.0344
rfoot -29.3454 -16.7731
rtoes 8.88635
lfemur 1.93129 3.08278 -5.99299
ltibia 24.378
lfoot -15.9838 5.44719
ltoes -4.34884
3841
root -3.88919 16.2794 -11.6346 791.635 -86.6956 -796.49
lowerback -4.23363 -0.702512 1.75648
upperback 1.73592 -0.956746 -2.7452
thorax 4.0956 -0.399942 -3.9065
lowerneck 4.09752 -11.0012 -10.0908
upperneck 26.137 -16.039 -1.60309
head 8.22154 -9.15446 0.0372431
rclavicle 0 -1.11319e-014
rhumerus -82.0675 36.9595 -123.246
rradius 75.2523
rwrist 20.7771
rhand -60.0958 47.6868
rfingers 7.12502
rthumb -32.243 20.5299
lclavicle 0 -1.11319e-014
lhumerus -79.1617 -43.082 104.858
lradius 89.5031
lwrist 2.12376
lhand -40.2803 -41.4542
lfingers 7.12502
lthumb -13.238 -11.8946
rfemur -3.71728 -3.72019 30.337
rtibia 33.107
rfoot -29.514 -17.0181
rtoes 8.94784
lfemur 1.92662 3.08288 -6.0856
ltibia 24.4985
lfoot -15.6653 4.83316
ltoes -4.54502
3842
root -3.88575 16.2836 -11.6264 790.835 -86.8603 -795.77
lowerback -4.18349 -0.681753 1.68181
upperback 1.75688 -0.922507 -2.83962
thorax 4.09151 -0.384254 -3.95966
lowerneck 4.05326 -10.9397 -10.0803
upperneck 26.3378 -15.921 -1.80547
head 8.27549 -9.12152 -0.0309555
rclavicle -2.38542e-015 -7.95139e-015
rhumerus -82.0081 36.9433 -123.373
rradius 75.1039
rwrist 20.7414
rhand -60.1023 47.6482
rfingers 7.12502
rthumb -32.2492 20.4926
lclavicle -2.38542e-015 -7.95139e-015
lhumerus -79.1749 -43.148 104.714
lradius 89.6528
lwrist 2.07536
lhand -40.2846 -41.4456
lfingers 7.12502
lthumb -13.2421 -11.8863
rfemur -3.67626 -3.42035 30.1946
rtibia 33.1782
rfoot -29.673 -17.2623
rtoes 8.99255
lfemur 1.91301 3.08909 -6.1678
ltibia 24.6307
lfoot -15.315 4.2077
ltoes -4.9325
3843
root -3.8823 16.2879 -11.6177 789.907 -87.0128 -794.92
lowerback -4.13323 -0.662644 1.61699
upperback 1.77613 -0.891306 -2.92909
thorax 4.08531 -0.369919 -4.01348
lowerneck 4.00843 -10.8774 -10.0717
upperneck 26.5365 -15.8007 -2.00975
head 8.32912 -9.08804 -0.0994851
rclavicle -1.39149e-015 7.95139e-015
rhumerus -81.9525 36.9324 -123.498
rradius 74.9603
rwrist 20.707
rhand -60.1037 47.6049
rfingers 7.12502
rthumb -32.2505 20.4496
lclavicle -1.39149e-015 7.95139e-015
lhumerus -79.1842 -43.2131 104.569
lradius 89.7995
lwrist 2.02111
lhand -40.2869 -41.4363
lfingers 7.12502
lthumb -13.2443 -11.877
rfemur -3.63741 -3.13387 30.0606
rtibia 33.2466
rfoot -29.8207 -17.5108
rtoes 9.01233
lfemur 1.88253 3.10251 -6.23103
ltibia 24.771
lfoot -14.9375 3.576
ltoes -5.50024
3844
root -3.87901 16.2923 -11.6084 788.917 -87.1617 -794.011
lowerback -4.08217 -0.643923 1.5565
upperback 1.7965 -0.861072 -3.01535
thorax 4.07975 -0.355972 -4.06653
lowerneck 3.95215 -10.8132 -10.0614
upperneck 26.7405 -15.6743 -2.22223
head 8.38587 -9.05257 -0.17168
rclavicle 4.57205e-015 1.27222e-014
rhumerus -81.9013 36.9318 -123.622
rradius 74.8217
rwrist 20.6749
rhand -60.1004 47.5608
rfingers 7.12502
rthumb -32.2474 20.4048
lclavicle 4.57205e-015 1.27222e-014
lhumerus -79.1865 -43.2751 104.42
lradius 89.9433
lwrist 1.96161
lhand -40.2829 -41.4305
lfingers 7.12502
lthumb -13.2405 -11.871
rfemur -3.59461 -2.86066 29.9246
rtibia 33.3114
rfoot -29.955 -17.7565
rtoes 9.00645
lfemur 1.84738 3.11408 -6.28608
ltibia 24.9148
lfoot -14.5572 2.92466
ltoes -6.06473
3845
root -3.87605 16.2969 -11.5981 787.787 -87.3074 -792.965
lowerback -4.03336 -0.625963 1.50239
upperback 1.82009 -0.832351 -3.09937
thorax 4.07869 -0.342529 -4.12113
lowerneck 3.88491 -10.7477 -10.0499
upperneck 26.9486 -15.5425 -2.44194
head 8.44546 -9.01536 -0.247141
rclavicle 1.98785e-016 -7.95139e-015
rhumerus -81.8555 36.9427 -123.747
rradius 74.6908
rwrist 20.6379
rhand -60.0911 47.5135
rfingers 7.12502
rthumb -32.2386 20.3557
lclavicle 1.98785e-016 -7.95139e-015
lhumerus -79.1786 -43.3338 104.267
lradius 90.0835
lwrist 1.88946
lhand -40.2734 -41.424
lfingers 7.12502
lthumb -13.2313 -11.864
rfemur -3.54319 -2.61432 29.7803
rtibia 33.3706
rfoot -30.0691 -17.992
rtoes 8.96303
lfemur 1.81022 3.11734 -6.33749
ltibia 25.062
lfoot -14.1866 2.25075
ltoes -6.55755
3846
root -3.87326 16.3016 -11.587 786.563 -87.4453 -791.828
lowerback -3.98529 -0.608538 1.45772
upperback 1.84481 -0.805043 -3.17897
thorax 4.07908 -0.329533 -4.17664
lowerneck 3.81581 -10.6806 -10.0393
upperneck 27.153 -15.4068 -2.66431
head 8.50428 -8.97681 -0.323248
rclavicle -1.85864e-014 -2.70347e-014
rhumerus -81.8165 36.9636 -123.873
rradius 74.5682
rwrist 20.5972
rhand -60.0796 47.4719
rfingers 7.12502
rthumb -32.2276 20.3119
lclavicle -1.85864e-014 -2.70347e-014
lhumerus -79.1672 -43.3886 104.112
lradius 90.2238
lwrist 1.80335
lhand -40.26 -41.4121
lfingers 7.12502
lthumb -13.2184 -11.8512
rfemur -3.48733 -2.39055 29.6342
rtibia 33.4253
rfoot -30.1675 -18.2166
rtoes 8.89076
lfemur 1.77139 3.10581 -6.3825
ltibia 25.2082
lfoot -13.8291 1.56515
ltoes -6.96257
